<?xml version="1.0" encoding="UTF-8"?>
<!DOCTYPE svg PUBLIC "-//W3C//DTD SVG 1.1//EN" "http://www.w3.org/Graphics/SVG/1.1/DTD/svg11.dtd">
<!-- Creator: CorelDRAW -->
<svg xmlns="http://www.w3.org/2000/svg" xml:space="preserve" width="10.8681mm" height="16.9333mm" style="shape-rendering:geometricPrecision; text-rendering:geometricPrecision; image-rendering:optimizeQuality; fill-rule:evenodd; clip-rule:evenodd"
viewBox="0 0 0.645928 1.0064"
 xmlns:xlink="http://www.w3.org/1999/xlink">
 <defs>
  <style type="text/css">
   <![CDATA[
    .fil0 {fill:#F23A35;fill-rule:nonzero}
   ]]>
  </style>
 </defs>
 <g id="__x0023_Layer_x0020_1">
  <metadata id="CorelCorpID_0Corel-Layer"/>
  <path class="fil0" d="M0.322967 0c0.0685088,0 0.0900475,0.0490741 0.108038,0.0981779 0.00763718,0.0208136 0.185634,0.508191 0.190959,0.522805 0.001468,0.00406524 0.00051707,0.0108169 -0.00581852,0.0131942 -0.00630588,0.00239516 -0.0987782,0.0383583 -0.10386,0.0402899 -0.00513504,0.00190187 -0.0108822,-0.000939047 -0.0127722,-0.00599682 -0.00190781,-0.00504589 -0.0402185,-0.111313 -0.0445691,-0.123235 -0.0127247,0 -0.250969,0 -0.263694,0 -0.00435052,0.0119223 -0.0430595,0.118367 -0.0448365,0.123235 -0.00179489,0.00486165 -0.0073519,0.00811859 -0.0127425,0.00599682 -0.00540249,-0.00215743 -0.0983146,-0.03818 -0.103913,-0.0402899 -0.00526579,-0.00201479 -0.00761341,-0.0080651 -0.00577692,-0.0131942 0.00653172,-0.0182758 0.181818,-0.497802 0.190769,-0.522805 0.0173664,-0.048349 0.0396836,-0.0981779 0.108216,-0.0981779zm-0.313059 0.872077l0 0c-0.00546787,0 -0.00990754,0.00457637 -0.00990754,0.0102285l0 0.113868c0,0.00568777 0.00443967,0.0102285 0.00990754,0.0102285l0.626118 0c0.0054857,0 0.00990159,-0.00454071 0.00990159,-0.0102285l0 -0.113868c0,-0.00565211 -0.0044159,-0.0102285 -0.00990159,-0.0102285l-0.626118 0zm0.312501 -0.712915l0 0 -0.0891797 0.267735 0.179768 0 -0.0894531 -0.267735 -0.00113518 0z"/>
 </g>
</svg>
