<?xml version="1.0" encoding="UTF-8"?>
<!DOCTYPE svg PUBLIC "-//W3C//DTD SVG 1.1//EN" "http://www.w3.org/Graphics/SVG/1.1/DTD/svg11.dtd">
<!-- Creator: CorelDRAW -->
<svg xmlns="http://www.w3.org/2000/svg" xml:space="preserve" width="16.9334mm" height="16.9334mm" style="shape-rendering:geometricPrecision; text-rendering:geometricPrecision; image-rendering:optimizeQuality; fill-rule:evenodd; clip-rule:evenodd"
viewBox="0 0 2.76444 2.76444"
 xmlns:xlink="http://www.w3.org/1999/xlink">
 <defs>
  <style type="text/css">
   <![CDATA[
    .fil1 {fill:#00a6ff}
    .fil3 {fill:#FEFEFE}
    .fil2 {fill:#FEFEFE}
    .fil0 {fill:#010101;fill-rule:nonzero}
   ]]>
  </style>
 </defs>
<symbol id="Fm3-475-0" viewBox="30.5803 -9.22828 2.12959 3.00096">
 <polygon class="fil0" points="30.5803,-9.22828 32.7099,-6.22732 32.7099,-7.97013 "/>
</symbol>
<symbol id="Fm0-469-0" viewBox="30.5802 -10.6 4.25918 2.22674">
 <polygon class="fil0" points="32.7098,-10.6 30.5802,-9.63208 32.7098,-8.3733 34.8394,-9.63208 "/>
</symbol>
<symbol id="Fm1-471-0" viewBox="30.5803 -13.1656 2.12959 4.79231">
 <polygon class="fil0" points="30.5803,-9.6321 32.7099,-8.37332 32.7099,-10.6001 32.7099,-13.1656 "/>
</symbol>
<symbol id="Fm4-477-0" viewBox="32.7098 -9.22826 2.13085 3.00096">
 <polygon class="fil0" points="32.7098,-7.9701 32.7098,-6.2273 34.8407,-9.22826 "/>
</symbol>
<symbol id="Fm2-473-0" viewBox="32.7098 -13.1656 2.12959 4.79231">
 <polygon class="fil0" points="32.7098,-13.1656 32.7098,-10.6001 32.7098,-8.37332 34.8394,-9.6321 "/>
</symbol>
 <g id="Слой_x0020_1">
  <metadata id="CorelCorpID_0Corel-Layer"/>
  <g id="_466878208">
   <circle id="_466879672" class="fil1" cx="1.38222" cy="1.38221" r="1.38221"/>
   <g>
    <polygon id="_466879528" class="fil2" points="0.876867,0.6784 1.43511,0.6784 1.38318,0.739408 1.43511,0.800415 0.876867,0.800415 0.824936,0.739408 "/>
    <polygon id="_466879384" class="fil2" points="1.10255,0.933108 0.74868,0.933108 0.800611,0.994132 0.74868,1.05514 1.10255,1.05514 1.15446,0.994132 "/>
    <polygon id="_466879240" class="fil2" points="0.692309,1.19089 1.25055,1.19089 1.19864,1.25189 1.25055,1.3129 0.692309,1.3129 0.640394,1.25189 "/>
    <polygon id="_466879096" class="fil3" points="1.51158,0.732567 1.32593,1.25904 1.40073,1.23036 1.44101,1.29961 1.62666,0.773152 1.58638,0.703884 "/>
    <polygon id="_466878952" class="fil3" points="1.60424,1.23036 1.72192,0.896637 1.76219,0.965889 1.83699,0.937222 1.71932,1.27094 1.6445,1.29961 "/>
    <polygon id="_466878808" class="fil3" points="2.01122,0.732567 1.82557,1.25904 1.90037,1.23036 1.94064,1.29961 2.12629,0.773152 2.08602,0.703884 "/>
    <path id="_466878664" class="fil3" d="M2.06047 1.51196c0.120889,0 0.218874,0.0979847 0.218874,0.218874 0,0.120873 -0.0979847,0.218874 -0.218874,0.218874 -0.120889,0 -0.218874,-0.0980011 -0.218874,-0.218874 0,-0.120889 0.0979847,-0.218874 0.218874,-0.218874zm0 0.069399c0.0825573,0 0.149475,0.0669176 0.149475,0.149475 0,0.0825573 -0.0669176,0.149475 -0.149475,0.149475 -0.0825573,0 -0.149475,-0.0669176 -0.149475,-0.149475 0,-0.0825573 0.0669176,-0.149475 0.149475,-0.149475z"/>
    <polygon id="_466878520" class="fil2" points="0.485091,1.50814 0.506233,1.50814 0.558082,1.50814 0.793853,1.50814 0.793853,1.58113 0.558082,1.58113 0.558082,1.68899 0.793853,1.68899 0.793853,1.76198 0.558082,1.76198 0.558082,1.86984 0.793853,1.86984 0.793853,1.94283 0.558082,1.94283 0.506233,1.94283 0.485091,1.94283 "/>
    <polygon id="_466877992" class="fil3" points="1.32083,1.50814 1.32243,1.50814 1.39383,1.50814 1.39543,1.50814 1.55022,1.72335 1.705,1.50814 1.7052,1.50814 1.77801,1.50814 1.77819,1.50814 1.77819,1.94283 1.7052,1.94283 1.7052,1.60937 1.58671,1.77409 1.5586,1.81319 1.54185,1.81319 1.39383,1.60739 1.39383,1.94283 1.32083,1.94283 "/>
    <polygon id="_466878400" class="fil2" points="1.25179,1.50814 1.17879,1.50814 1.06061,1.67245 0.94243,1.50814 0.869439,1.50814 1.02411,1.72321 0.866141,1.94283 0.939132,1.94283 1.06061,1.77394 1.18209,1.94283 1.25508,1.94283 1.09711,1.72321 "/>
   </g>
  </g>
 </g>
</svg>
