<?xml version="1.0" encoding="UTF-8"?>
<!DOCTYPE svg PUBLIC "-//W3C//DTD SVG 1.1//EN" "http://www.w3.org/Graphics/SVG/1.1/DTD/svg11.dtd">
<!-- Creator: CorelDRAW -->
<svg xmlns="http://www.w3.org/2000/svg" xml:space="preserve" width="16.9334mm" height="16.9334mm" style="shape-rendering:geometricPrecision; text-rendering:geometricPrecision; image-rendering:optimizeQuality; fill-rule:evenodd; clip-rule:evenodd"
viewBox="0 0 1.48554 1.48554"
 xmlns:xlink="http://www.w3.org/1999/xlink">
 <defs>
  <style type="text/css">
   <![CDATA[
    .fil1 {fill:#5B5B5B}
    .fil0 {fill:#0098DE}
    .fil2 {fill:#FEFEFE;fill-rule:nonzero}
   ]]>
  </style>
 </defs>
 <g id="Слой_x0020_1">
  <metadata id="CorelCorpID_0Corel-Layer"/>
  <g id="_234703232">
   <path id="_234705152" class="fil0" d="M0.742768 0c0.410217,0 0.742768,0.332551 0.742768,0.742768 0,0.410217 -0.332551,0.742768 -0.742768,0.742768 -0.410217,0 -0.742768,-0.332551 -0.742768,-0.742768 0,-0.410217 0.332551,-0.742768 0.742768,-0.742768z"/>
   <g>
    <g>
     <path id="_234709976" class="fil1" d="M1.02176 0.921567c0.0622344,0 0.112415,0.0498208 0.112415,0.112082 0,0.0626555 -0.0495927,0.113003 -0.112415,0.113003 -0.0623396,0 -0.112494,-0.0507683 -0.112494,-0.113003 0,-0.0618484 0.050742,-0.112082 0.112494,-0.112082zm0 0.207021c0.0525053,0 0.0948517,-0.0424429 0.0948517,-0.0949394 0,-0.0522334 -0.0427324,-0.0943341 -0.0948517,-0.0943341 -0.0521193,0 -0.0946149,0.0421534 -0.0946149,0.0943341 0,0.0524351 0.0421095,0.0949394 0.0946149,0.0949394z"/>
     <path id="_234761936" class="fil1" d="M1.03818 1.04007c0.00831663,0.00411445 0.0131592,0.0110538 0.0163701,0.0209407 0.00365827,0.0112994 0.00735162,0.0229409 0.00930796,0.034679l0.000429868 0.00259675 -0.00263185 0c-0.00529878,0 -0.0105888,0 -0.0158876,0l-0.00204407 0 -0.000175456 -0.00203529c-0.000868509,-0.0100537 -0.0035179,-0.020195 -0.00605324,-0.0299416 -0.00204407,-0.00786922 -0.0116503,-0.0173263 -0.0193002,-0.0201512 -0.00699194,-0.00257044 -0.0113082,-0.00287748 -0.0188265,-0.00287748l-0.00312312 0 0 0.0550056 -0.0170807 0 0 -0.128355 0.0445396 0c0.00652698,0 0.0144752,0.000614097 0.0203968,0.00358808 0.00540406,0.00271957 0.00909741,0.0074218 0.0116328,0.0128083 0.00291258,0.00618484 0.00416709,0.0128259 0.00416709,0.0196423 0,0.00848332 -0.00195634,0.0165982 -0.00700071,0.0235199 -0.00377231,0.00519351 -0.00892196,0.00854473 -0.0147208,0.01058zm-0.0419341 -0.0154402l0.0249236 0c0.00399163,0 0.00891318,-0.000377231 0.0125627,-0.00212302 0.0029038,-0.00138611 0.00496542,-0.00355299 0.00638661,-0.0064217 0.00157911,-0.00318453 0.00230725,-0.00656207 0.00230725,-0.0101151 0,-0.00479873 -0.00117556,-0.00930796 -0.00436886,-0.0129925 -0.00341263,-0.00393022 -0.00888687,-0.00488646 -0.0138435,-0.00488646l-0.0279677 0 0 0.0365388z"/>
    </g>
    <path id="_237265224" class="fil2" d="M0.520956 1.15719l0 -0.828838 0.214346 0c0.111827,0 0.253938,0.0128171 0.304075,0.100887 0.0255815,0.0449344 0.0383723,0.102975 0.0383723,0.173904 0,0.0549178 -0.00743935,0.101089 -0.0221952,0.138339 -0.0525755,0.132715 -0.153937,0.143909 -0.313935,0.143322l-0.0582603 -0.000210548 0.00256166 0.272598 -0.164964 0zm0.162402 -0.6945l0 0.280055c0.105362,0.00705335 0.229234,0.0127118 0.229234,-0.137102 0,-0.158209 -0.121319,-0.137637 -0.229234,-0.142953z"/>
   </g>
  </g>
 </g>
</svg>
