<?xml version="1.0" encoding="UTF-8"?>
<!DOCTYPE svg PUBLIC "-//W3C//DTD SVG 1.1//EN" "http://www.w3.org/Graphics/SVG/1.1/DTD/svg11.dtd">
<!-- Creator: CorelDRAW -->
<svg xmlns="http://www.w3.org/2000/svg" xml:space="preserve" width="16.9333mm" height="16.9333mm" style="shape-rendering:geometricPrecision; text-rendering:geometricPrecision; image-rendering:optimizeQuality; fill-rule:evenodd; clip-rule:evenodd"
viewBox="0 0 1.47815 1.47815"
 xmlns:xlink="http://www.w3.org/1999/xlink">
 <defs>
  <style type="text/css">
   <![CDATA[
    .fil1 {fill:#FEFEFE}
    .fil0 {fill:#F00F0F}
   ]]>
  </style>
 </defs>
 <g id="Слой_x0020_1">
  <metadata id="CorelCorpID_0Corel-Layer"/>
  <g id="_234703568">
   <path id="_234703616" class="fil0" d="M0.73908 0c0.408172,0 0.739072,0.3309 0.739072,0.73908 0,0.408172 -0.3309,0.739072 -0.739072,0.739072 -0.40818,0 -0.73908,-0.3309 -0.73908,-0.739072 0,-0.40818 0.3309,-0.73908 0.73908,-0.73908z"/>
   <path id="_234708728" class="fil1" d="M0.198634 0.496066c0.206718,0.000261878 0.26832,-0.0221374 0.34079,0.025376 0.0955418,0.0626412 0.0779959,0.199638 0.0191084,0.244236 -0.129272,0.0978987 -0.388967,0.0527422 -0.453328,0.0215787 0.164154,0.0216486 0.311975,0.0355368 0.392406,-0.0379199 0.0538334,-0.0491719 0.02947,-0.168431 -0.00396308,-0.197098 -0.0279424,-0.0239444 -0.0345941,-0.0335989 -0.0999239,-0.0346814 -0.0514503,0.00339568 -0.0510574,0.0173189 -0.0508305,0.0394301l-0.00111735 0.226254 -0.069965 0 0 -0.222072c0.00123083,-0.0251926 0.00254021,-0.0413592 -0.0731774,-0.0418132 0,-0.00975931 0,-0.0135304 0,-0.0232897zm0.143055 0.35357l-0.000881655 0.117138c0.00070707,0.0481506 0.0300461,0.0716236 0.0865594,0.0728806l-0.000846738 0.0212034c-0.0752637,0 -0.150527,0 -0.2258,0l-0.000628507 -0.0232635c0.0566966,-0.00362264 0.0716061,-0.029662 0.0717196,-0.0687342l0 -0.122524c0.0236563,0.00403292 0.0473213,0.00285447 0.0698777,0.00329966z"/>
   <path id="_234708800" class="fil1" d="M0.700357 0.973409c0.0022085,0.0526636 0.0150143,0.0708816 0.072287,0.0721299l-0.000846738 0.0212034c-0.0752637,0 -0.108452,0 -0.183716,0l-0.000637236 -0.0232635c0.0566966,-0.00362264 0.0701047,-0.0289113 0.0717196,-0.0687255l0.0219716 -0.413584c0.00123083,-0.0251926 0.00254021,-0.0413592 -0.0731774,-0.0418132 0,-0.00975931 0,-0.0135304 0,-0.0232897l0.144426 0.000576131c0.000148397,0.0292518 0.00648584,0.0466143 0.0179823,0.0715625l0.179997 0.378544 0.00273226 0.00575258 0.00295922 -0.00594463 0.188875 -0.380788c0.0114964,-0.0249482 0.0178339,-0.0423107 0.0179823,-0.0715625l0.144417 -0.000576131c0,0.00975931 0,0.0135304 0,0.0232897 -0.0757089,0.000453922 -0.0743995,0.0166205 -0.0731687,0.0418132l0.00171966 0.413034c0.00161491,0.0398229 0.0150231,0.0651028 0.0717196,0.0687255l-0.000637236 0.0232635c-0.0752637,0 -0.135103,0 -0.210366,0l-0.000846738 -0.0212034c0.0572727,-0.00124828 0.0700785,-0.0194663 0.072287,-0.0721299l-0.00673899 -0.361845 -0.222998 0.459412 -0.00894749 -8.72926e-006 -0.00519391 8.72926e-006 -0.208987 -0.456427 -0.0148136 0.361845z"/>
  </g>
 </g>
</svg>
