<?xml version="1.0" encoding="UTF-8"?>
<!DOCTYPE svg PUBLIC "-//W3C//DTD SVG 1.1//EN" "http://www.w3.org/Graphics/SVG/1.1/DTD/svg11.dtd">
<!-- Creator: CorelDRAW -->
<svg xmlns="http://www.w3.org/2000/svg" xml:space="preserve" width="16.9332mm" height="13.7742mm" style="shape-rendering:geometricPrecision; text-rendering:geometricPrecision; image-rendering:optimizeQuality; fill-rule:evenodd; clip-rule:evenodd"
viewBox="0 0 1.49909 1.21943"
 xmlns:xlink="http://www.w3.org/1999/xlink">
 <defs>
  <style type="text/css">
   <![CDATA[
    .fil0 {fill:#052F83;fill-rule:nonzero}
   ]]>
  </style>
 </defs>
 <g id="Слой_x0020_1">
  <metadata id="CorelCorpID_0Corel-Layer"/>
  <path class="fil0" d="M1.1309 0.609545l-0.926941 0c0,0 0.0279577,0.0896275 0.0603684,0.135504 0.00883526,0 0.824725,0 0.824725,0 0,0 0.157397,0.123375 0.232691,0.339042l-0.866892 0c-0.14958,-0.121976 -0.261588,-0.286863 -0.320407,-0.474546 0.0074542,-0.0229735 0.0157317,-0.0455308 0.0247883,-0.0676987l0.971233 0c0.0757283,-0.0526486 0.151005,-0.135521 0.151005,-0.135521l-1.05427 0c0.0139788,-0.0232213 0.0288518,-0.0457787 0.0446367,-0.0676721l1.06477 0c0.028117,-0.0340839 0.0845813,-0.13553 0.0845813,-0.13553l-1.03193 0c0.0247883,-0.023903 0.0508338,-0.0464869 0.0779858,-0.0676987l0.985592 0c0.0264969,-0.0634492 0.0455397,-0.132795 0.0462656,-0.135424l-1.07069 0c-0.204504,0.145623 -0.358705,0.358944 -0.428413,0.609545 0.0691151,0.247865 0.221953,0.462913 0.428023,0.609881l1.0683 0c0,0 -0.0187683,-0.32432 -0.365424,-0.609881z"/>
 </g>
</svg>
