<?xml version="1.0" encoding="UTF-8"?>
<!DOCTYPE svg PUBLIC "-//W3C//DTD SVG 1.1//EN" "http://www.w3.org/Graphics/SVG/1.1/DTD/svg11.dtd">
<!-- Creator: CorelDRAW -->
<svg xmlns="http://www.w3.org/2000/svg" xml:space="preserve" width="16.8398mm" height="16.9333mm" style="shape-rendering:geometricPrecision; text-rendering:geometricPrecision; image-rendering:optimizeQuality; fill-rule:evenodd; clip-rule:evenodd"
viewBox="0 0 1.48513 1.49337"
 xmlns:xlink="http://www.w3.org/1999/xlink">
 <defs>
  <style type="text/css">
   <![CDATA[
    .fil1 {fill:#FEFEFE}
    .fil0 {fill:url(#id0)}
   ]]>
  </style>
  <linearGradient id="id0" gradientUnits="userSpaceOnUse" x1="0.742564" y1="0" x2="0.742564" y2="1.49337">
   <stop offset="0" style="stop-color:#FFAD64"/>
   <stop offset="1" style="stop-color:#FF6F18"/>
  </linearGradient>
 </defs>
 <g id="Слой_x0020_1">
  <metadata id="CorelCorpID_0Corel-Layer"/>
  <g id="_234705032">
   <path id="_234762248" class="fil0" d="M0.25027 0l0.789323 0 0.445535 0.709554 0 0.0715145 -0.445535 0.712305 -0.789323 0c-0.137641,0 -0.25027,-0.112621 -0.25027,-0.25027l0 -0.992834c0,-0.137649 0.112621,-0.25027 0.25027,-0.25027z"/>
   <path id="_237265720" class="fil1" d="M0.211774 0.61794c0.00181675,-0.0617958 0.0475705,-0.08051 0.101755,-0.111897 0.139343,-0.0760916 0.278694,-0.152183 0.418037,-0.228275 0.0613548,-0.0345358 0.0855546,0.00948059 0.0852547,0.0357528 0,0.163181 0,0.326362 0,0.489542 0.000617341,0.0500487 -0.0722465,0.0789667 -0.137508,0.104507 -0.110927,0.0440076 -0.221855,0.0880151 -0.332782,0.132014 -0.0417499,0.0183879 -0.0181939,0.0663641 0.0275069,0.0467591 0.144846,-0.0394216 0.289691,-0.0788432 0.434537,-0.118265 0.0721936,-0.0190582 0.0776615,-0.0431786 0.0797516,-0.0825032 -0.000917192,-0.104507 -0.00183438,-0.209023 -0.00275158,-0.31353 0.142615,-0.0102126 0.121043,0.0457449 0.123759,0.0935095 0.000917192,0.143929 0.00183438,0.287857 0.00275158,0.431786 -0.000926011,0.0489463 -0.0267749,0.0671137 -0.0660025,0.0687541 -0.220937,0.000917192 -0.441866,0.00183438 -0.662803,0.00275158 -0.0494843,-0.000670256 -0.0710206,-0.0336892 -0.0715057,-0.0825032 0,-0.159512 0,-0.308891 0,-0.468403zm0.422429 -0.0827501c0.0286887,-0.0148074 0.0519448,-0.00482408 0.0519448,0.022286 0,0.0271189 -0.0232561,0.0610991 -0.0519448,0.0759064 -0.0286887,0.0148074 -0.0519448,0.0048329 -0.0519448,-0.022286 0,-0.0271189 0.0232561,-0.0610991 0.0519448,-0.0759064z"/>
  </g>
 </g>
</svg>
